<svg width="166" height="25" viewBox="0 0 166 25" fill="none" xmlns="http://www.w3.org/2000/svg">
<path d="M4 12.9154H14.6667M4 7.58203H20M4 18.2487H20" stroke="white" stroke-width="2" stroke-linecap="round" stroke-linejoin="round"/>
<path d="M47.1822 22.582C51.4324 22.582 53.5575 20.2052 53.5575 17.2487C53.5575 14.2052 51.7821 12.698 48.7962 11.9733L45.6758 11.1907C43.0397 10.5241 42.0444 9.88638 42.0444 7.68348C42.0444 5.56754 43.5239 4.49507 46.5097 4.49507C50.0605 4.49507 51.3517 6.20522 51.3517 8.87189V9.19073H53.2616V8.81391C53.2616 5.6545 51.2172 2.58203 46.5366 2.58203C42.2596 2.58203 40.1076 5.01681 40.1076 7.82841C40.1076 10.9588 42.0444 12.3501 44.8689 12.9878L47.9892 13.7415C50.7061 14.3791 51.6207 15.1907 51.6207 17.3646C51.6207 19.5965 50.2219 20.669 47.236 20.669C43.228 20.669 41.9099 18.9878 41.9099 16.2922V15.9733H40V16.4081C40 19.7415 42.1789 22.582 47.1822 22.582Z" fill="white"/>
<path d="M63.458 22.582C68.0041 22.582 70.9093 19.7125 70.9093 14.64V2.87189H68.9725V14.64C68.9725 18.7849 67.3585 20.582 63.458 20.582C59.5038 20.582 57.9167 18.7849 57.9167 14.64V2.87189H55.9799V14.64C55.9799 19.7125 58.8582 22.582 63.458 22.582Z" fill="white"/>
<path d="M74.3335 22.2922L76.4855 16.611H85.3893L87.5682 22.2922H89.6395L82.3496 2.87189H79.6059L72.316 22.2922H74.3335ZM79.8211 7.79942L80.8701 4.8429H81.0046L82.0268 7.79942L84.663 14.727H77.1849L79.8211 7.79942Z" fill="white"/>
<path d="M110.041 22.2922V17.3936H101.002V2.87189H95.9453V22.2922H110.041Z" fill="#FFB800"/>
<path d="M118.845 22.582C124.548 22.582 127.883 18.64 127.883 12.582C127.883 6.52406 124.548 2.58203 118.845 2.58203C113.115 2.58203 109.78 6.52406 109.78 12.582C109.78 18.64 113.115 22.582 118.845 22.582ZM118.845 17.2777C116.047 17.2777 115.214 16.3212 115.214 12.582C115.214 8.8429 116.047 7.88638 118.845 7.88638C121.616 7.88638 122.45 8.8429 122.45 12.582C122.45 16.3212 121.616 17.2777 118.845 17.2777Z" fill="#FFB800"/>
<path d="M136.677 22.582C139.985 22.582 141.115 20.9878 141.653 19.5675H141.895V22.2922H146.629V11.8284H137.484V15.9154H141.734C141.653 17.1038 140.981 17.5675 138.371 17.5675C135.358 17.5675 134.39 16.9009 134.39 12.582C134.39 8.66899 135.251 7.88638 137.914 7.88638C140.496 7.88638 141.196 8.49507 141.196 10.2632V10.3501H146.603V10.1472C146.603 5.59652 143.886 2.58203 138.264 2.58203C132.238 2.58203 128.956 6.52406 128.956 12.582C128.956 18.8429 131.593 22.582 136.677 22.582Z" fill="#FFB800"/>
<path d="M156.962 22.582C162.664 22.582 166 18.64 166 12.582C166 6.52406 162.664 2.58203 156.962 2.58203C151.232 2.58203 147.896 6.52406 147.896 12.582C147.896 18.64 151.232 22.582 156.962 22.582ZM156.962 17.2777C154.164 17.2777 153.33 16.3212 153.33 12.582C153.33 8.8429 154.164 7.88638 156.962 7.88638C159.732 7.88638 160.566 8.8429 160.566 12.582C160.566 16.3212 159.732 17.2777 156.962 17.2777Z" fill="#FFB800"/>
</svg>
